# xmcd
#
# Track frame offsets:
#	150
#	14085
#	30655
#	46628
#	58010
#	75030
#	90605
#	108708
#	123245
#	138173
#	152913
#	167370
#	179225
#	190258
#	206438
#	216018
#	227905
#	245925
#	264685
#	278720
#
# Disc length: 3935 seconds
#
# Revision: 1
# Processed by: cddbd v1.5.2PL0 Copyright (c) Steve Scherf et al.
# Submitted via: audiograbber 1.83.01
#
DISCID=180f5d14
DTITLE=The Music Box - Disk 3
DYEAR=1900
DGENRE=
TTITLE0=She's Got You - Loretta Lynn
TTITLE1=Why Can't He Be You - Loretta Lynn
TTITLE2=The Gambler - Kenny Rogers
TTITLE3=Waylong Jennings and Willie Nelson - Mammas Don't let You Babies Grow U
TTITLE3=p To Be Cowboys
TTITLE4=Last Cheates Walts - T.G Sheappard
TTITLE5=Sail Away - The Oak Ridge Boys
TTITLE6=Texas When I Die - Tanya Tuker
TTITLE7=Could I Have This Dance - Anne Murray
TTITLE8=Friday Night Blues - John Conlee
TTITLE9=He Stopped Loving Her Today - George Jone
TTITLE10=Smooth Saling - T.G Sheppard
TTITLE11=Mickey Gilley - That's All That Matters To Me
TTITLE12=Trying To Love Tow Woman - Oak Ridge Boys
TTITLE13=Ronnie Milsap - Am I Loosing You
TTITLE14=Willie Nelson - Mountain Dew
TTITLE15=Ronnie McDowell - Older Woman
TTITLE16=John Denver - Some Days Are Diamonds ( Some Days Are Sone)
TTITLE17=Alabama - Gona Have A Party
TTITLE18=Oak Ridge Boys - I Wish You Could Have Turnd My Head
TTITLE19=Lee Greenwood - Ring On Her Finger Time On Her Hands
EXTD=
EXTT0=
EXTT1=
EXTT2=
EXTT3=
EXTT4=
EXTT5=
EXTT6=
EXTT7=
EXTT8=
EXTT9=
EXTT10=
EXTT11=
EXTT12=
EXTT13=
EXTT14=
EXTT15=
EXTT16=
EXTT17=
EXTT18=
EXTT19=
PLAYORDER=
